<svg xmlns="http://www.w3.org/2000/svg" viewBox="0 0 32 40" x="0px" y="0px"><title>Artboard 4</title><g data-name="Layer 2"><path d="M16,2.25A13.72949,13.72949,0,0,0,6.72681,26.1228h.00024a13.66677,13.66677,0,0,0,18.5459,0h.00024A13.72949,13.72949,0,0,0,16,2.25ZM7.95532,25.2157a8.23748,8.23748,0,0,1,16.08936,0,12.18137,12.18137,0,0,1-16.08936,0ZM11.75,13A4.25,4.25,0,1,1,16,17.25,4.25475,4.25475,0,0,1,11.75,13ZM25.26465,23.991a9.698,9.698,0,0,0-6.08325-6.20533,5.75,5.75,0,1,0-6.3628,0A9.698,9.698,0,0,0,6.73535,23.991a12.25,12.25,0,1,1,18.5293,0Z"/></g><text x="0" y="47" fill="#000000" font-size="5px" font-weight="bold" font-family="'Helvetica Neue', Helvetica, Arial-Unicode, Arial, Sans-serif">Created by Anggara Putra</text><text x="0" y="52" fill="#000000" font-size="5px" font-weight="bold" font-family="'Helvetica Neue', Helvetica, Arial-Unicode, Arial, Sans-serif">from the Noun Project</text></svg>